<svg width="110" height="21" viewBox="0 0 110 21" fill="none" xmlns="http://www.w3.org/2000/svg">
    <circle cx="20" cy="3" r="2" stroke="#F66E49" stroke-width="2" />
    <circle cx="3" cy="10" r="2" stroke="#F66E49" stroke-width="2" />
    <circle cx="20" cy="18" r="2" stroke="#F66E49" stroke-width="2" />
    <line x1="6.02856" y1="10.0004" x2="16.0245" y2="10.286" stroke="#F66E49" stroke-width="2" />
    <line x1="16.0745" y1="10.6214" x2="18.3463" y2="5.06809" stroke="#F66E49" stroke-width="2" />
    <line x1="15.9021" y1="10.5685" x2="18.4909" y2="15.9813" stroke="#F66E49" stroke-width="2" />
    <path
        d="M29.01 14V12.428H30.684C31.164 12.428 31.524 12.298 31.764 12.038C32.004 11.778 32.124 11.406 32.124 10.922V9.386C32.124 8.902 32.004 8.532 31.764 8.276C31.524 8.016 31.164 7.886 30.684 7.886H29.004V6.332H30.75C31.842 6.332 32.658 6.596 33.198 7.124C33.742 7.648 34.014 8.402 34.014 9.386V10.928C34.014 11.916 33.744 12.676 33.204 13.208C32.664 13.736 31.846 14 30.75 14H29.01ZM27.696 14V6.332H29.544V14H27.696ZM38.0048 14.15C36.9328 14.15 36.1408 13.912 35.6288 13.436C35.1168 12.956 34.8608 12.258 34.8608 11.342V10.73C34.8608 9.826 35.1008 9.134 35.5808 8.654C36.0608 8.17 36.7588 7.928 37.6748 7.928C38.2908 7.928 38.8028 8.034 39.2108 8.246C39.6228 8.454 39.9308 8.752 40.1348 9.14C40.3428 9.528 40.4468 9.994 40.4468 10.538V10.736C40.4468 10.888 40.4388 11.044 40.4228 11.204C40.4108 11.36 40.3928 11.506 40.3688 11.642H38.7128C38.7288 11.41 38.7388 11.192 38.7428 10.988C38.7468 10.78 38.7488 10.592 38.7488 10.424C38.7488 10.18 38.7108 9.976 38.6348 9.812C38.5588 9.644 38.4408 9.516 38.2808 9.428C38.1248 9.34 37.9228 9.296 37.6748 9.296C37.3068 9.296 37.0368 9.396 36.8648 9.596C36.6968 9.792 36.6128 10.072 36.6128 10.436V10.976L36.6248 11.174V11.594C36.6248 11.746 36.6488 11.89 36.6968 12.026C36.7488 12.162 36.8368 12.282 36.9608 12.386C37.0888 12.486 37.2628 12.566 37.4828 12.626C37.7068 12.682 37.9908 12.71 38.3348 12.71C38.6988 12.71 39.0488 12.676 39.3848 12.608C39.7208 12.536 40.0428 12.44 40.3508 12.32L40.2008 13.7C39.9288 13.84 39.6068 13.95 39.2348 14.03C38.8628 14.11 38.4528 14.15 38.0048 14.15ZM35.8328 11.642V10.508H39.9968V11.642H35.8328ZM43.9841 14.156C43.0481 14.156 42.3541 13.91 41.9021 13.418C41.4501 12.926 41.2241 12.234 41.2241 11.342V10.73C41.2241 9.854 41.4501 9.17 41.9021 8.678C42.3541 8.186 43.0461 7.94 43.9781 7.94C44.2181 7.94 44.4421 7.958 44.6501 7.994C44.8581 8.026 45.0501 8.072 45.2261 8.132C45.4021 8.192 45.5561 8.256 45.6881 8.324L45.8381 9.842C45.6421 9.73 45.4261 9.638 45.1901 9.566C44.9541 9.49 44.6881 9.452 44.3921 9.452C43.9281 9.452 43.5921 9.564 43.3841 9.788C43.1761 10.012 43.0721 10.336 43.0721 10.76V11.27C43.0721 11.702 43.1821 12.034 43.4021 12.266C43.6221 12.498 43.9661 12.614 44.4341 12.614C44.7261 12.614 44.9881 12.58 45.2201 12.512C45.4561 12.44 45.6801 12.348 45.8921 12.236L45.7481 13.76C45.5401 13.872 45.2841 13.966 44.9801 14.042C44.6761 14.118 44.3441 14.156 43.9841 14.156ZM49.6416 14.15C48.5696 14.15 47.7776 13.912 47.2656 13.436C46.7536 12.956 46.4976 12.258 46.4976 11.342V10.73C46.4976 9.826 46.7376 9.134 47.2176 8.654C47.6976 8.17 48.3956 7.928 49.3116 7.928C49.9276 7.928 50.4396 8.034 50.8476 8.246C51.2596 8.454 51.5676 8.752 51.7716 9.14C51.9796 9.528 52.0836 9.994 52.0836 10.538V10.736C52.0836 10.888 52.0756 11.044 52.0596 11.204C52.0476 11.36 52.0296 11.506 52.0056 11.642H50.3496C50.3656 11.41 50.3756 11.192 50.3796 10.988C50.3836 10.78 50.3856 10.592 50.3856 10.424C50.3856 10.18 50.3476 9.976 50.2716 9.812C50.1956 9.644 50.0776 9.516 49.9176 9.428C49.7616 9.34 49.5596 9.296 49.3116 9.296C48.9436 9.296 48.6736 9.396 48.5016 9.596C48.3336 9.792 48.2496 10.072 48.2496 10.436V10.976L48.2616 11.174V11.594C48.2616 11.746 48.2856 11.89 48.3336 12.026C48.3856 12.162 48.4736 12.282 48.5976 12.386C48.7256 12.486 48.8996 12.566 49.1196 12.626C49.3436 12.682 49.6276 12.71 49.9716 12.71C50.3356 12.71 50.6856 12.676 51.0216 12.608C51.3576 12.536 51.6796 12.44 51.9876 12.32L51.8376 13.7C51.5656 13.84 51.2436 13.95 50.8716 14.03C50.4996 14.11 50.0896 14.15 49.6416 14.15ZM47.4696 11.642V10.508H51.6336V11.642H47.4696ZM56.8688 14V10.532C56.8688 10.316 56.8408 10.13 56.7848 9.974C56.7288 9.814 56.6348 9.692 56.5028 9.608C56.3708 9.524 56.1908 9.482 55.9628 9.482C55.7748 9.482 55.6088 9.516 55.4648 9.584C55.3208 9.648 55.1988 9.738 55.0988 9.854C55.0028 9.966 54.9308 10.094 54.8828 10.238L54.6008 9.38H54.9128C54.9768 9.112 55.0808 8.872 55.2248 8.66C55.3728 8.448 55.5748 8.28 55.8308 8.156C56.0868 8.028 56.4108 7.964 56.8028 7.964C57.2428 7.964 57.6028 8.05 57.8828 8.222C58.1628 8.39 58.3688 8.642 58.5008 8.978C58.6368 9.314 58.7048 9.734 58.7048 10.238V14H56.8688ZM53.0768 14V8.102H54.9008L54.8408 9.578L54.9128 9.752V14H53.0768ZM62.2083 14.132C61.6843 14.132 61.2663 14.054 60.9543 13.898C60.6463 13.738 60.4243 13.5 60.2883 13.184C60.1523 12.868 60.0843 12.478 60.0843 12.014V8.72H61.9083V11.72C61.9083 12.008 61.9723 12.22 62.1003 12.356C62.2323 12.488 62.4763 12.554 62.8323 12.554C63.0283 12.554 63.2223 12.532 63.4143 12.488C63.6063 12.444 63.7803 12.388 63.9363 12.32L63.7803 13.838C63.5763 13.926 63.3403 13.996 63.0723 14.048C62.8083 14.104 62.5203 14.132 62.2083 14.132ZM59.2923 9.566V8.126H63.8823L63.7203 9.566H59.2923ZM60.1083 8.258L60.1023 6.734L61.9203 6.56L61.8543 8.258H60.1083Z"
        fill="black" />
    <path
        d="M70.156 14.156C69.22 14.156 68.526 13.91 68.074 13.418C67.622 12.926 67.396 12.234 67.396 11.342V10.73C67.396 9.854 67.622 9.17 68.074 8.678C68.526 8.186 69.218 7.94 70.15 7.94C70.39 7.94 70.614 7.958 70.822 7.994C71.03 8.026 71.222 8.072 71.398 8.132C71.574 8.192 71.728 8.256 71.86 8.324L72.01 9.842C71.814 9.73 71.598 9.638 71.362 9.566C71.126 9.49 70.86 9.452 70.564 9.452C70.1 9.452 69.764 9.564 69.556 9.788C69.348 10.012 69.244 10.336 69.244 10.76V11.27C69.244 11.702 69.354 12.034 69.574 12.266C69.794 12.498 70.138 12.614 70.606 12.614C70.898 12.614 71.16 12.58 71.392 12.512C71.628 12.44 71.852 12.348 72.064 12.236L71.92 13.76C71.712 13.872 71.456 13.966 71.152 14.042C70.848 14.118 70.516 14.156 70.156 14.156ZM75.5554 14.168C74.6034 14.168 73.8834 13.932 73.3954 13.46C72.9114 12.984 72.6694 12.316 72.6694 11.456V10.682C72.6694 9.81 72.9134 9.134 73.4014 8.654C73.8894 8.17 74.6074 7.928 75.5554 7.928C76.5034 7.928 77.2194 8.17 77.7034 8.654C78.1914 9.134 78.4354 9.81 78.4354 10.682V11.456C78.4354 12.316 78.1934 12.984 77.7094 13.46C77.2254 13.932 76.5074 14.168 75.5554 14.168ZM75.5554 12.722C75.8954 12.722 76.1534 12.62 76.3294 12.416C76.5094 12.208 76.5994 11.914 76.5994 11.534V10.604C76.5994 10.204 76.5094 9.9 76.3294 9.692C76.1534 9.484 75.8954 9.38 75.5554 9.38C75.2154 9.38 74.9554 9.484 74.7754 9.692C74.5994 9.9 74.5114 10.204 74.5114 10.604V11.534C74.5114 11.914 74.5994 12.208 74.7754 12.416C74.9554 12.62 75.2154 12.722 75.5554 12.722ZM83.2399 14V10.532C83.2399 10.316 83.2119 10.13 83.1559 9.974C83.0999 9.814 83.0059 9.692 82.8739 9.608C82.7419 9.524 82.5619 9.482 82.3339 9.482C82.1459 9.482 81.9799 9.516 81.8359 9.584C81.6919 9.648 81.5699 9.738 81.4699 9.854C81.3739 9.966 81.3019 10.094 81.2539 10.238L80.9719 9.38H81.2839C81.3479 9.112 81.4519 8.872 81.5959 8.66C81.7439 8.448 81.9459 8.28 82.2019 8.156C82.4579 8.028 82.7819 7.964 83.1739 7.964C83.6139 7.964 83.9739 8.05 84.2539 8.222C84.5339 8.39 84.7399 8.642 84.8719 8.978C85.0079 9.314 85.0759 9.734 85.0759 10.238V14H83.2399ZM79.4479 14V8.102H81.2719L81.2119 9.578L81.2839 9.752V14H79.4479ZM90.0368 14V10.532C90.0368 10.316 90.0088 10.13 89.9528 9.974C89.8968 9.814 89.8028 9.692 89.6708 9.608C89.5388 9.524 89.3588 9.482 89.1308 9.482C88.9428 9.482 88.7768 9.516 88.6328 9.584C88.4888 9.648 88.3668 9.738 88.2668 9.854C88.1708 9.966 88.0988 10.094 88.0508 10.238L87.7688 9.38H88.0808C88.1448 9.112 88.2488 8.872 88.3928 8.66C88.5408 8.448 88.7428 8.28 88.9988 8.156C89.2548 8.028 89.5788 7.964 89.9708 7.964C90.4108 7.964 90.7708 8.05 91.0508 8.222C91.3308 8.39 91.5368 8.642 91.6688 8.978C91.8048 9.314 91.8728 9.734 91.8728 10.238V14H90.0368ZM86.2448 14V8.102H88.0688L88.0088 9.578L88.0808 9.752V14H86.2448ZM95.9697 14.15C94.8977 14.15 94.1057 13.912 93.5937 13.436C93.0817 12.956 92.8257 12.258 92.8257 11.342V10.73C92.8257 9.826 93.0657 9.134 93.5457 8.654C94.0257 8.17 94.7237 7.928 95.6397 7.928C96.2557 7.928 96.7677 8.034 97.1757 8.246C97.5877 8.454 97.8957 8.752 98.0997 9.14C98.3077 9.528 98.4117 9.994 98.4117 10.538V10.736C98.4117 10.888 98.4037 11.044 98.3877 11.204C98.3757 11.36 98.3577 11.506 98.3337 11.642H96.6777C96.6937 11.41 96.7037 11.192 96.7077 10.988C96.7117 10.78 96.7137 10.592 96.7137 10.424C96.7137 10.18 96.6757 9.976 96.5997 9.812C96.5237 9.644 96.4057 9.516 96.2457 9.428C96.0897 9.34 95.8877 9.296 95.6397 9.296C95.2717 9.296 95.0017 9.396 94.8297 9.596C94.6617 9.792 94.5777 10.072 94.5777 10.436V10.976L94.5897 11.174V11.594C94.5897 11.746 94.6137 11.89 94.6617 12.026C94.7137 12.162 94.8017 12.282 94.9257 12.386C95.0537 12.486 95.2277 12.566 95.4477 12.626C95.6717 12.682 95.9557 12.71 96.2997 12.71C96.6637 12.71 97.0137 12.676 97.3497 12.608C97.6857 12.536 98.0077 12.44 98.3157 12.32L98.1657 13.7C97.8937 13.84 97.5717 13.95 97.1997 14.03C96.8277 14.11 96.4177 14.15 95.9697 14.15ZM93.7977 11.642V10.508H97.9617V11.642H93.7977ZM101.949 14.156C101.013 14.156 100.319 13.91 99.867 13.418C99.415 12.926 99.189 12.234 99.189 11.342V10.73C99.189 9.854 99.415 9.17 99.867 8.678C100.319 8.186 101.011 7.94 101.943 7.94C102.183 7.94 102.407 7.958 102.615 7.994C102.823 8.026 103.015 8.072 103.191 8.132C103.367 8.192 103.521 8.256 103.653 8.324L103.803 9.842C103.607 9.73 103.391 9.638 103.155 9.566C102.919 9.49 102.653 9.452 102.357 9.452C101.893 9.452 101.557 9.564 101.349 9.788C101.141 10.012 101.037 10.336 101.037 10.76V11.27C101.037 11.702 101.147 12.034 101.367 12.266C101.587 12.498 101.931 12.614 102.399 12.614C102.691 12.614 102.953 12.58 103.185 12.512C103.421 12.44 103.645 12.348 103.857 12.236L103.713 13.76C103.505 13.872 103.249 13.966 102.945 14.042C102.641 14.118 102.309 14.156 101.949 14.156ZM107.224 14.132C106.7 14.132 106.282 14.054 105.97 13.898C105.662 13.738 105.44 13.5 105.304 13.184C105.168 12.868 105.1 12.478 105.1 12.014V8.72H106.924V11.72C106.924 12.008 106.988 12.22 107.116 12.356C107.248 12.488 107.492 12.554 107.848 12.554C108.044 12.554 108.238 12.532 108.43 12.488C108.622 12.444 108.796 12.388 108.952 12.32L108.796 13.838C108.592 13.926 108.356 13.996 108.088 14.048C107.824 14.104 107.536 14.132 107.224 14.132ZM104.308 9.566V8.126H108.898L108.736 9.566H104.308ZM105.124 8.258L105.118 6.734L106.936 6.56L106.87 8.258H105.124Z"
        fill="black" />
</svg>