<svg width="176" height="35" viewBox="0 0 176 35" fill="none" xmlns="http://www.w3.org/2000/svg">
    <circle cx="31" cy="5" r="4" stroke="#AF3B6E" stroke-width="2" />
    <circle cx="5" cy="17" r="4" stroke="#AF3B6E" stroke-width="2" />
    <circle cx="31" cy="30" r="4" stroke="#AF3B6E" stroke-width="2" />
    <line x1="9.02856" y1="17.0004" x2="24.0224" y2="17.4288" stroke="#AF3B6E" stroke-width="2" />
    <line x1="24.0745" y1="17.6214" x2="27.8608" y2="8.3659" stroke="#AF3B6E" stroke-width="2" />
    <line x1="23.9021" y1="17.5685" x2="28.2167" y2="26.5899" stroke="#AF3B6E" stroke-width="2" />
    <path
        d="M41.35 23V20.38H44.14C44.94 20.38 45.54 20.1633 45.94 19.73C46.34 19.2967 46.54 18.6767 46.54 17.87V15.31C46.54 14.5033 46.34 13.8867 45.94 13.46C45.54 13.0267 44.94 12.81 44.14 12.81H41.34V10.22H44.25C46.07 10.22 47.43 10.66 48.33 11.54C49.2367 12.4133 49.69 13.67 49.69 15.31V17.88C49.69 19.5267 49.24 20.7933 48.34 21.68C47.44 22.56 46.0767 23 44.25 23H41.35ZM39.16 23V10.22H42.24V23H39.16ZM56.3414 23.25C54.5547 23.25 53.2347 22.8533 52.3814 22.06C51.5281 21.26 51.1014 20.0967 51.1014 18.57V17.55C51.1014 16.0433 51.5014 14.89 52.3014 14.09C53.1014 13.2833 54.2647 12.88 55.7914 12.88C56.8181 12.88 57.6714 13.0567 58.3514 13.41C59.0381 13.7567 59.5514 14.2533 59.8914 14.9C60.2381 15.5467 60.4114 16.3233 60.4114 17.23V17.56C60.4114 17.8133 60.3981 18.0733 60.3714 18.34C60.3514 18.6 60.3214 18.8433 60.2814 19.07H57.5214C57.5481 18.6833 57.5647 18.32 57.5714 17.98C57.5781 17.6333 57.5814 17.32 57.5814 17.04C57.5814 16.6333 57.5181 16.2933 57.3914 16.02C57.2647 15.74 57.0681 15.5267 56.8014 15.38C56.5414 15.2333 56.2047 15.16 55.7914 15.16C55.1781 15.16 54.7281 15.3267 54.4414 15.66C54.1614 15.9867 54.0214 16.4533 54.0214 17.06V17.96L54.0414 18.29V18.99C54.0414 19.2433 54.0814 19.4833 54.1614 19.71C54.2481 19.9367 54.3947 20.1367 54.6014 20.31C54.8147 20.4767 55.1047 20.61 55.4714 20.71C55.8447 20.8033 56.3181 20.85 56.8914 20.85C57.4981 20.85 58.0814 20.7933 58.6414 20.68C59.2014 20.56 59.7381 20.4 60.2514 20.2L60.0014 22.5C59.5481 22.7333 59.0114 22.9167 58.3914 23.05C57.7714 23.1833 57.0881 23.25 56.3414 23.25ZM52.7214 19.07V17.18H59.6614V19.07H52.7214ZM66.3069 23.26C64.7469 23.26 63.5902 22.85 62.8369 22.03C62.0835 21.21 61.7069 20.0567 61.7069 18.57V17.55C61.7069 16.09 62.0835 14.95 62.8369 14.13C63.5902 13.31 64.7435 12.9 66.2969 12.9C66.6969 12.9 67.0702 12.93 67.4169 12.99C67.7635 13.0433 68.0835 13.12 68.3769 13.22C68.6702 13.32 68.9269 13.4267 69.1469 13.54L69.3969 16.07C69.0702 15.8833 68.7102 15.73 68.3169 15.61C67.9235 15.4833 67.4802 15.42 66.9869 15.42C66.2135 15.42 65.6535 15.6067 65.3069 15.98C64.9602 16.3533 64.7869 16.8933 64.7869 17.6V18.45C64.7869 19.17 64.9702 19.7233 65.3369 20.11C65.7035 20.4967 66.2769 20.69 67.0569 20.69C67.5435 20.69 67.9802 20.6333 68.3669 20.52C68.7602 20.4 69.1335 20.2467 69.4869 20.06L69.2469 22.6C68.9002 22.7867 68.4735 22.9433 67.9669 23.07C67.4602 23.1967 66.9069 23.26 66.3069 23.26ZM75.7359 23.25C73.9493 23.25 72.6293 22.8533 71.7759 22.06C70.9226 21.26 70.4959 20.0967 70.4959 18.57V17.55C70.4959 16.0433 70.8959 14.89 71.6959 14.09C72.4959 13.2833 73.6593 12.88 75.1859 12.88C76.2126 12.88 77.0659 13.0567 77.7459 13.41C78.4326 13.7567 78.9459 14.2533 79.2859 14.9C79.6326 15.5467 79.8059 16.3233 79.8059 17.23V17.56C79.8059 17.8133 79.7926 18.0733 79.7659 18.34C79.7459 18.6 79.7159 18.8433 79.6759 19.07H76.9159C76.9426 18.6833 76.9593 18.32 76.9659 17.98C76.9726 17.6333 76.9759 17.32 76.9759 17.04C76.9759 16.6333 76.9126 16.2933 76.7859 16.02C76.6593 15.74 76.4626 15.5267 76.1959 15.38C75.9359 15.2333 75.5993 15.16 75.1859 15.16C74.5726 15.16 74.1226 15.3267 73.8359 15.66C73.5559 15.9867 73.4159 16.4533 73.4159 17.06V17.96L73.4359 18.29V18.99C73.4359 19.2433 73.4759 19.4833 73.5559 19.71C73.6426 19.9367 73.7893 20.1367 73.9959 20.31C74.2093 20.4767 74.4993 20.61 74.8659 20.71C75.2393 20.8033 75.7126 20.85 76.2859 20.85C76.8926 20.85 77.4759 20.7933 78.0359 20.68C78.5959 20.56 79.1326 20.4 79.6459 20.2L79.3959 22.5C78.9426 22.7333 78.4059 22.9167 77.7859 23.05C77.1659 23.1833 76.4826 23.25 75.7359 23.25ZM72.1159 19.07V17.18H79.0559V19.07H72.1159ZM87.7814 23V17.22C87.7814 16.86 87.7347 16.55 87.6414 16.29C87.5481 16.0233 87.3914 15.82 87.1714 15.68C86.9514 15.54 86.6514 15.47 86.2714 15.47C85.9581 15.47 85.6814 15.5267 85.4414 15.64C85.2014 15.7467 84.9981 15.8967 84.8314 16.09C84.6714 16.2767 84.5514 16.49 84.4714 16.73L84.0014 15.3H84.5214C84.6281 14.8533 84.8014 14.4533 85.0414 14.1C85.2881 13.7467 85.6247 13.4667 86.0514 13.26C86.4781 13.0467 87.0181 12.94 87.6714 12.94C88.4047 12.94 89.0047 13.0833 89.4714 13.37C89.9381 13.65 90.2814 14.07 90.5014 14.63C90.7281 15.19 90.8414 15.89 90.8414 16.73V23H87.7814ZM81.4614 23V13.17H84.5014L84.4014 15.63L84.5214 15.92V23H81.4614ZM96.6805 23.22C95.8071 23.22 95.1105 23.09 94.5905 22.83C94.0771 22.5633 93.7071 22.1667 93.4805 21.64C93.2538 21.1133 93.1405 20.4633 93.1405 19.69V14.2H96.1805V19.2C96.1805 19.68 96.2871 20.0333 96.5005 20.26C96.7205 20.48 97.1271 20.59 97.7205 20.59C98.0471 20.59 98.3705 20.5533 98.6905 20.48C99.0105 20.4067 99.3005 20.3133 99.5605 20.2L99.3005 22.73C98.9605 22.8767 98.5671 22.9933 98.1205 23.08C97.6805 23.1733 97.2005 23.22 96.6805 23.22ZM91.8205 15.61V13.21H99.4705L99.2005 15.61H91.8205ZM93.1805 13.43L93.1705 10.89L96.2005 10.6L96.0905 13.43H93.1805Z"
        fill="black" />
    <path
        d="M110.26 22.26C108.7 22.26 107.543 21.85 106.79 21.03C106.037 20.21 105.66 19.0567 105.66 17.57V16.55C105.66 15.09 106.037 13.95 106.79 13.13C107.543 12.31 108.697 11.9 110.25 11.9C110.65 11.9 111.023 11.93 111.37 11.99C111.717 12.0433 112.037 12.12 112.33 12.22C112.623 12.32 112.88 12.4267 113.1 12.54L113.35 15.07C113.023 14.8833 112.663 14.73 112.27 14.61C111.877 14.4833 111.433 14.42 110.94 14.42C110.167 14.42 109.607 14.6067 109.26 14.98C108.913 15.3533 108.74 15.8933 108.74 16.6V17.45C108.74 18.17 108.923 18.7233 109.29 19.11C109.657 19.4967 110.23 19.69 111.01 19.69C111.497 19.69 111.933 19.6333 112.32 19.52C112.713 19.4 113.087 19.2467 113.44 19.06L113.2 21.6C112.853 21.7867 112.427 21.9433 111.92 22.07C111.413 22.1967 110.86 22.26 110.26 22.26ZM119.259 22.28C117.672 22.28 116.472 21.8867 115.659 21.1C114.852 20.3067 114.449 19.1933 114.449 17.76V16.47C114.449 15.0167 114.856 13.89 115.669 13.09C116.482 12.2833 117.679 11.88 119.259 11.88C120.839 11.88 122.032 12.2833 122.839 13.09C123.652 13.89 124.059 15.0167 124.059 16.47V17.76C124.059 19.1933 123.656 20.3067 122.849 21.1C122.042 21.8867 120.846 22.28 119.259 22.28ZM119.259 19.87C119.826 19.87 120.256 19.7 120.549 19.36C120.849 19.0133 120.999 18.5233 120.999 17.89V16.34C120.999 15.6733 120.849 15.1667 120.549 14.82C120.256 14.4733 119.826 14.3 119.259 14.3C118.692 14.3 118.259 14.4733 117.959 14.82C117.666 15.1667 117.519 15.6733 117.519 16.34V17.89C117.519 18.5233 117.666 19.0133 117.959 19.36C118.259 19.7 118.692 19.87 119.259 19.87ZM132.067 22V16.22C132.067 15.86 132.02 15.55 131.927 15.29C131.833 15.0233 131.677 14.82 131.457 14.68C131.237 14.54 130.937 14.47 130.557 14.47C130.243 14.47 129.967 14.5267 129.727 14.64C129.487 14.7467 129.283 14.8967 129.117 15.09C128.957 15.2767 128.837 15.49 128.757 15.73L128.287 14.3H128.807C128.913 13.8533 129.087 13.4533 129.327 13.1C129.573 12.7467 129.91 12.4667 130.337 12.26C130.763 12.0467 131.303 11.94 131.957 11.94C132.69 11.94 133.29 12.0833 133.757 12.37C134.223 12.65 134.567 13.07 134.787 13.63C135.013 14.19 135.127 14.89 135.127 15.73V22H132.067ZM125.747 22V12.17H128.787L128.687 14.63L128.807 14.92V22H125.747ZM143.395 22V16.22C143.395 15.86 143.348 15.55 143.255 15.29C143.161 15.0233 143.005 14.82 142.785 14.68C142.565 14.54 142.265 14.47 141.885 14.47C141.571 14.47 141.295 14.5267 141.055 14.64C140.815 14.7467 140.611 14.8967 140.445 15.09C140.285 15.2767 140.165 15.49 140.085 15.73L139.615 14.3H140.135C140.241 13.8533 140.415 13.4533 140.655 13.1C140.901 12.7467 141.238 12.4667 141.665 12.26C142.091 12.0467 142.631 11.94 143.285 11.94C144.018 11.94 144.618 12.0833 145.085 12.37C145.551 12.65 145.895 13.07 146.115 13.63C146.341 14.19 146.455 14.89 146.455 15.73V22H143.395ZM137.075 22V12.17H140.115L140.015 14.63L140.135 14.92V22H137.075ZM153.283 22.25C151.496 22.25 150.176 21.8533 149.323 21.06C148.469 20.26 148.043 19.0967 148.043 17.57V16.55C148.043 15.0433 148.443 13.89 149.243 13.09C150.043 12.2833 151.206 11.88 152.733 11.88C153.759 11.88 154.613 12.0567 155.293 12.41C155.979 12.7567 156.493 13.2533 156.833 13.9C157.179 14.5467 157.353 15.3233 157.353 16.23V16.56C157.353 16.8133 157.339 17.0733 157.313 17.34C157.293 17.6 157.263 17.8433 157.223 18.07H154.463C154.489 17.6833 154.506 17.32 154.513 16.98C154.519 16.6333 154.523 16.32 154.523 16.04C154.523 15.6333 154.459 15.2933 154.333 15.02C154.206 14.74 154.009 14.5267 153.743 14.38C153.483 14.2333 153.146 14.16 152.733 14.16C152.119 14.16 151.669 14.3267 151.383 14.66C151.103 14.9867 150.963 15.4533 150.963 16.06V16.96L150.983 17.29V17.99C150.983 18.2433 151.023 18.4833 151.103 18.71C151.189 18.9367 151.336 19.1367 151.543 19.31C151.756 19.4767 152.046 19.61 152.413 19.71C152.786 19.8033 153.259 19.85 153.833 19.85C154.439 19.85 155.023 19.7933 155.583 19.68C156.143 19.56 156.679 19.4 157.193 19.2L156.943 21.5C156.489 21.7333 155.953 21.9167 155.333 22.05C154.713 22.1833 154.029 22.25 153.283 22.25ZM149.663 18.07V16.18H156.603V18.07H149.663ZM163.248 22.26C161.688 22.26 160.532 21.85 159.778 21.03C159.025 20.21 158.648 19.0567 158.648 17.57V16.55C158.648 15.09 159.025 13.95 159.778 13.13C160.532 12.31 161.685 11.9 163.238 11.9C163.638 11.9 164.012 11.93 164.358 11.99C164.705 12.0433 165.025 12.12 165.318 12.22C165.612 12.32 165.868 12.4267 166.088 12.54L166.338 15.07C166.012 14.8833 165.652 14.73 165.258 14.61C164.865 14.4833 164.422 14.42 163.928 14.42C163.155 14.42 162.595 14.6067 162.248 14.98C161.902 15.3533 161.728 15.8933 161.728 16.6V17.45C161.728 18.17 161.912 18.7233 162.278 19.11C162.645 19.4967 163.218 19.69 163.998 19.69C164.485 19.69 164.922 19.6333 165.308 19.52C165.702 19.4 166.075 19.2467 166.428 19.06L166.188 21.6C165.842 21.7867 165.415 21.9433 164.908 22.07C164.402 22.1967 163.848 22.26 163.248 22.26ZM172.04 22.22C171.167 22.22 170.47 22.09 169.95 21.83C169.437 21.5633 169.067 21.1667 168.84 20.64C168.613 20.1133 168.5 19.4633 168.5 18.69V13.2H171.54V18.2C171.54 18.68 171.647 19.0333 171.86 19.26C172.08 19.48 172.487 19.59 173.08 19.59C173.407 19.59 173.73 19.5533 174.05 19.48C174.37 19.4067 174.66 19.3133 174.92 19.2L174.66 21.73C174.32 21.8767 173.927 21.9933 173.48 22.08C173.04 22.1733 172.56 22.22 172.04 22.22ZM167.18 14.61V12.21H174.83L174.56 14.61H167.18ZM168.54 12.43L168.53 9.89L171.56 9.6L171.45 12.43H168.54Z"
        fill="black" />
</svg>